<svg width="1280" height="913" xmlns="http://www.w3.org/2000/svg"><g><path d="M-137.28884952326567,-157.35488022146347L-173.13335199222504,354.19671516089244L-75.4304433672791,70.29612674440774Z" fill="#f9fbff" stroke="#f9fbff"/><path d="M-137.28884952326567,-157.35488022146347L-75.4304433672791,70.29612674440774L184.2022559517785,-107.62807801239614Z" fill="#f9f7fb" stroke="#f9f7fb"/><path d="M-137.28884952326567,-157.35488022146347L184.2022559517785,-107.62807801239614L468.0556262333353,-163.41457629256684Z" fill="#eaedf5" stroke="#eaedf5"/><path d="M184.2022559517785,-107.62807801239614L-75.4304433672791,70.29612674440774L67.235256872345,114.21617218458957Z" fill="#f2f2f9" stroke="#f2f2f9"/><path d="M184.2022559517785,-107.62807801239614L67.235256872345,114.21617218458957L248.94713817032164,-71.23197839301184Z" fill="#ebedf5" stroke="#ebedf5"/><path d="M184.2022559517785,-107.62807801239614L248.94713817032164,-71.23197839301184L468.0556262333353,-163.41457629256684Z" fill="#e0e5f1" stroke="#e0e5f1"/><path d="M248.94713817032164,-71.23197839301184L67.235256872345,114.21617218458957L290.9991069765179,26.553075936611457Z" fill="#e6eaf4" stroke="#e6eaf4"/><path d="M248.94713817032164,-71.23197839301184L290.9991069765179,26.553075936611457L468.0556262333353,-163.41457629256684Z" fill="#dce3f0" stroke="#dce3f0"/><path d="M468.0556262333353,-163.41457629256684L290.9991069765179,26.553075936611457L455.74014004142583,104.69842468719673Z" fill="#d5e0ee" stroke="#d5e0ee"/><path d="M468.0556262333353,-163.41457629256684L455.74014004142583,104.69842468719673L652.6061683229209,-132.01186861488645Z" fill="#c7daea" stroke="#c7daea"/><path d="M468.0556262333353,-163.41457629256684L652.6061683229209,-132.01186861488645L1272.113246187518,-132.41873610413748Z" fill="#9ec6e0" stroke="#9ec6e0"/><path d="M652.6061683229209,-132.01186861488645L455.74014004142583,104.69842468719673L735.8062535877982,126.49977826622592Z" fill="#bbd5e8" stroke="#bbd5e8"/><path d="M652.6061683229209,-132.01186861488645L735.8062535877982,126.49977826622592L935.0674217365155,-18.21777395885377Z" fill="#a2c8e1" stroke="#a2c8e1"/><path d="M652.6061683229209,-132.01186861488645L935.0674217365155,-18.21777395885377L1139.3008497357478,-83.08456133204916Z" fill="#8bbcda" stroke="#8bbcda"/><path d="M652.6061683229209,-132.01186861488645L1139.3008497357478,-83.08456133204916L1272.113246187518,-132.41873610413748Z" fill="#80b2d5" stroke="#80b2d5"/><path d="M935.0674217365155,-18.21777395885377L735.8062535877982,126.49977826622592L868.9118021535813,146.50572238511458Z" fill="#90bfdd" stroke="#90bfdd"/><path d="M935.0674217365155,-18.21777395885377L868.9118021535813,146.50572238511458L1131.8862747675955,21.18025008581911Z" fill="#7cb5d7" stroke="#7cb5d7"/><path d="M935.0674217365155,-18.21777395885377L1131.8862747675955,21.18025008581911L1139.3008497357478,-83.08456133204916Z" fill="#80aed2" stroke="#80aed2"/><path d="M1139.3008497357478,-83.08456133204916L1131.8862747675955,21.18025008581911L1272.113246187518,-132.41873610413748Z" fill="#80a4cd" stroke="#80a4cd"/><path d="M1272.113246187518,-132.41873610413748L1131.8862747675955,21.18025008581911L1288.2067903232037,94.06666177314457Z" fill="#80a0cb" stroke="#80a0cb"/><path d="M1272.113246187518,-132.41873610413748L1288.2067903232037,94.06666177314457L1534.3652872541138,56.23934401886887Z" fill="#7f94c4" stroke="#7f94c4"/><path d="M1272.113246187518,-132.41873610413748L1534.3652872541138,56.23934401886887L1569.3313534385395,-104.50276156029742Z" fill="#808bc0" stroke="#808bc0"/><path d="M1569.3313534385395,-104.50276156029742L1534.3652872541138,56.23934401886887L1556.5825470547743,709.5038853640292Z" fill="#717cbb" stroke="#717cbb"/><path d="M-75.4304433672791,70.29612674440774L-173.13335199222504,354.19671516089244L67.235256872345,114.21617218458957Z" fill="#f1f4fd" stroke="#f1f4fd"/><path d="M67.235256872345,114.21617218458957L-173.13335199222504,354.19671516089244L153.41195427136446,312.02063782747524Z" fill="#e2ecfa" stroke="#e2ecfa"/><path d="M67.235256872345,114.21617218458957L153.41195427136446,312.02063782747524L272.63218055826616,276.4632446149592Z" fill="#dbe5f5" stroke="#dbe5f5"/><path d="M67.235256872345,114.21617218458957L272.63218055826616,276.4632446149592L290.9991069765179,26.553075936611457Z" fill="#dee6f4" stroke="#dee6f4"/><path d="M290.9991069765179,26.553075936611457L272.63218055826616,276.4632446149592L455.74014004142583,104.69842468719673Z" fill="#d3dff0" stroke="#d3dff0"/><path d="M455.74014004142583,104.69842468719673L272.63218055826616,276.4632446149592L548.7995484730183,218.33435387967853Z" fill="#c5d8ed" stroke="#c5d8ed"/><path d="M455.74014004142583,104.69842468719673L548.7995484730183,218.33435387967853L735.8062535877982,126.49977826622592Z" fill="#b7d2e9" stroke="#b7d2e9"/><path d="M735.8062535877982,126.49977826622592L548.7995484730183,218.33435387967853L656.109554562534,355.7707188420745Z" fill="#a9cce7" stroke="#a9cce7"/><path d="M735.8062535877982,126.49977826622592L656.109554562534,355.7707188420745L861.4066491158213,350.69735576709735Z" fill="#8ebfe1" stroke="#8ebfe1"/><path d="M735.8062535877982,126.49977826622592L861.4066491158213,350.69735576709735L868.9118021535813,146.50572238511458Z" fill="#8dbdde" stroke="#8dbdde"/><path d="M868.9118021535813,146.50572238511458L861.4066491158213,350.69735576709735L1152.2861636167509,238.97312336732Z" fill="#70afd7" stroke="#70afd7"/><path d="M868.9118021535813,146.50572238511458L1152.2861636167509,238.97312336732L1131.8862747675955,21.18025008581911Z" fill="#77abd3" stroke="#77abd3"/><path d="M1131.8862747675955,21.18025008581911L1152.2861636167509,238.97312336732L1288.2067903232037,94.06666177314457Z" fill="#789fcd" stroke="#789fcd"/><path d="M1288.2067903232037,94.06666177314457L1152.2861636167509,238.97312336732L1367.1670489711937,333.6852371567924Z" fill="#7195c9" stroke="#7195c9"/><path d="M1288.2067903232037,94.06666177314457L1367.1670489711937,333.6852371567924L1485.6725764575033,305.0646457995173Z" fill="#6e89c3" stroke="#6e89c3"/><path d="M1288.2067903232037,94.06666177314457L1485.6725764575033,305.0646457995173L1534.3652872541138,56.23934401886887Z" fill="#7688c1" stroke="#7688c1"/><path d="M1534.3652872541138,56.23934401886887L1485.6725764575033,305.0646457995173L1556.5825470547743,709.5038853640292Z" fill="#5873ba" stroke="#5873ba"/><path d="M-173.13335199222504,354.19671516089244L-167.13884617116986,872.1685768079601L-102.87869084818126,752.5783617620198Z" fill="#97c6eb" stroke="#97c6eb"/><path d="M-173.13335199222504,354.19671516089244L-102.87869084818126,752.5783617620198L-22.885844341593923,526.1867810679715Z" fill="#b1d5f3" stroke="#b1d5f3"/><path d="M-173.13335199222504,354.19671516089244L-22.885844341593923,526.1867810679715L55.33799760156004,501.5563560404441Z" fill="#c1def8" stroke="#c1def8"/><path d="M-173.13335199222504,354.19671516089244L55.33799760156004,501.5563560404441L153.41195427136446,312.02063782747524Z" fill="#cae1f7" stroke="#cae1f7"/><path d="M153.41195427136446,312.02063782747524L55.33799760156004,501.5563560404441L353.1125450445424,562.814066220737Z" fill="#aed0f1" stroke="#aed0f1"/><path d="M153.41195427136446,312.02063782747524L353.1125450445424,562.814066220737L272.63218055826616,276.4632446149592Z" fill="#b7d3f0" stroke="#b7d3f0"/><path d="M272.63218055826616,276.4632446149592L353.1125450445424,562.814066220737L424.7101509910386,438.01575305423324Z" fill="#a6caec" stroke="#a6caec"/><path d="M272.63218055826616,276.4632446149592L424.7101509910386,438.01575305423324L548.7995484730183,218.33435387967853Z" fill="#b4d1ec" stroke="#b4d1ec"/><path d="M548.7995484730183,218.33435387967853L424.7101509910386,438.01575305423324L656.109554562534,355.7707188420745Z" fill="#a1c8e8" stroke="#a1c8e8"/><path d="M656.109554562534,355.7707188420745L424.7101509910386,438.01575305423324L722.6289532605477,495.4968306653416Z" fill="#89bee5" stroke="#89bee5"/><path d="M656.109554562534,355.7707188420745L722.6289532605477,495.4968306653416L861.4066491158213,350.69735576709735Z" fill="#77b5df" stroke="#77b5df"/><path d="M861.4066491158213,350.69735576709735L722.6289532605477,495.4968306653416L962.4264804214224,531.4276924693179Z" fill="#5ba6d9" stroke="#5ba6d9"/><path d="M861.4066491158213,350.69735576709735L962.4264804214224,531.4276924693179L1152.2861636167509,238.97312336732Z" fill="#55a1d4" stroke="#55a1d4"/><path d="M1152.2861636167509,238.97312336732L962.4264804214224,531.4276924693179L1017.4673625696969,549.3776046205242Z" fill="#4897d0" stroke="#4897d0"/><path d="M1152.2861636167509,238.97312336732L1017.4673625696969,549.3776046205242L1304.7521581993128,527.0293225720413Z" fill="#498dcb" stroke="#498dcb"/><path d="M1152.2861636167509,238.97312336732L1304.7521581993128,527.0293225720413L1367.1670489711937,333.6852371567924Z" fill="#5688c6" stroke="#5688c6"/><path d="M1367.1670489711937,333.6852371567924L1304.7521581993128,527.0293225720413L1460.777587614009,577.5245360649118Z" fill="#4074be" stroke="#4074be"/><path d="M1367.1670489711937,333.6852371567924L1460.777587614009,577.5245360649118L1485.6725764575033,305.0646457995173Z" fill="#4f77be" stroke="#4f77be"/><path d="M1485.6725764575033,305.0646457995173L1460.777587614009,577.5245360649118L1556.5825470547743,709.5038853640292Z" fill="#3562b4" stroke="#3562b4"/><path d="M-22.885844341593923,526.1867810679715L-102.87869084818126,752.5783617620198L103.84396071898212,749.6916908062462Z" fill="#8dbce5" stroke="#8dbce5"/><path d="M-22.885844341593923,526.1867810679715L103.84396071898212,749.6916908062462L55.33799760156004,501.5563560404441Z" fill="#9cc5ea" stroke="#9cc5ea"/><path d="M55.33799760156004,501.5563560404441L103.84396071898212,749.6916908062462L353.1125450445424,562.814066220737Z" fill="#8ebce5" stroke="#8ebce5"/><path d="M353.1125450445424,562.814066220737L103.84396071898212,749.6916908062462L382.2114657033335,733.633089888402Z" fill="#74aadb" stroke="#74aadb"/><path d="M353.1125450445424,562.814066220737L382.2114657033335,733.633089888402L509.1705810117125,711.3820122940408Z" fill="#69a5d9" stroke="#69a5d9"/><path d="M353.1125450445424,562.814066220737L509.1705810117125,711.3820122940408L424.7101509910386,438.01575305423324Z" fill="#7db3e0" stroke="#7db3e0"/><path d="M424.7101509910386,438.01575305423324L509.1705810117125,711.3820122940408L722.6289532605477,495.4968306653416Z" fill="#75b0de" stroke="#75b0de"/><path d="M722.6289532605477,495.4968306653416L509.1705810117125,711.3820122940408L704.6272242000493,642.3541714533247Z" fill="#5aa1d6" stroke="#5aa1d6"/><path d="M722.6289532605477,495.4968306653416L704.6272242000493,642.3541714533247L869.201807852716,700.8060474770084Z" fill="#4697d1" stroke="#4697d1"/><path d="M722.6289532605477,495.4968306653416L869.201807852716,700.8060474770084L962.4264804214224,531.4276924693179Z" fill="#4094d0" stroke="#4094d0"/><path d="M962.4264804214224,531.4276924693179L869.201807852716,700.8060474770084L1017.4673625696969,549.3776046205242Z" fill="#2b89c9" stroke="#2b89c9"/><path d="M1017.4673625696969,549.3776046205242L869.201807852716,700.8060474770084L1057.7475832533348,772.5824903417172Z" fill="#147ac1" stroke="#147ac1"/><path d="M1017.4673625696969,549.3776046205242L1057.7475832533348,772.5824903417172L1280.6514142218177,732.9798670101572Z" fill="#126dba" stroke="#126dba"/><path d="M1017.4673625696969,549.3776046205242L1280.6514142218177,732.9798670101572L1304.7521581993128,527.0293225720413Z" fill="#2471bc" stroke="#2471bc"/><path d="M1304.7521581993128,527.0293225720413L1280.6514142218177,732.9798670101572L1460.777587614009,577.5245360649118Z" fill="#2263b4" stroke="#2263b4"/><path d="M1460.777587614009,577.5245360649118L1280.6514142218177,732.9798670101572L1556.5825470547743,709.5038853640292Z" fill="#1452ab" stroke="#1452ab"/><path d="M-102.87869084818126,752.5783617620198L-167.13884617116986,872.1685768079601L21.587946139012516,953.0807421627293Z" fill="#7fa5d9" stroke="#7fa5d9"/><path d="M-102.87869084818126,752.5783617620198L21.587946139012516,953.0807421627293L103.84396071898212,749.6916908062462Z" fill="#78a5d9" stroke="#78a5d9"/><path d="M103.84396071898212,749.6916908062462L21.587946139012516,953.0807421627293L244.86919871984293,836.1571394685839Z" fill="#6f9bd3" stroke="#6f9bd3"/><path d="M103.84396071898212,749.6916908062462L244.86919871984293,836.1571394685839L382.2114657033335,733.633089888402Z" fill="#659fd5" stroke="#659fd5"/><path d="M382.2114657033335,733.633089888402L244.86919871984293,836.1571394685839L492.30360450657145,910.6120656547073Z" fill="#5990cd" stroke="#5990cd"/><path d="M382.2114657033335,733.633089888402L492.30360450657145,910.6120656547073L509.1705810117125,711.3820122940408Z" fill="#4f91ce" stroke="#4f91ce"/><path d="M509.1705810117125,711.3820122940408L492.30360450657145,910.6120656547073L689.9412126735616,968.4181745783242Z" fill="#4381c4" stroke="#4381c4"/><path d="M509.1705810117125,711.3820122940408L689.9412126735616,968.4181745783242L704.6272242000493,642.3541714533247Z" fill="#3b8aca" stroke="#3b8aca"/><path d="M704.6272242000493,642.3541714533247L689.9412126735616,968.4181745783242L826.4083852653365,865.2778926952423Z" fill="#2979c0" stroke="#2979c0"/><path d="M704.6272242000493,642.3541714533247L826.4083852653365,865.2778926952423L869.201807852716,700.8060474770084Z" fill="#2481c5" stroke="#2481c5"/><path d="M869.201807852716,700.8060474770084L826.4083852653365,865.2778926952423L1057.7475832533348,772.5824903417172Z" fill="#0a71bc" stroke="#0a71bc"/><path d="M1057.7475832533348,772.5824903417172L826.4083852653365,865.2778926952423L1038.2015446730413,927.1467684901479Z" fill="#0060b3" stroke="#0060b3"/><path d="M1057.7475832533348,772.5824903417172L1038.2015446730413,927.1467684901479L1269.326667118826,884.3303194757646Z" fill="#0052ab" stroke="#0052ab"/><path d="M1057.7475832533348,772.5824903417172L1269.326667118826,884.3303194757646L1280.6514142218177,732.9798670101572Z" fill="#0055ad" stroke="#0055ad"/><path d="M1280.6514142218177,732.9798670101572L1269.326667118826,884.3303194757646L1507.6993664517672,873.345165251945Z" fill="#0042a2" stroke="#0042a2"/><path d="M1280.6514142218177,732.9798670101572L1507.6993664517672,873.345165251945L1556.5825470547743,709.5038853640292Z" fill="#0042a3" stroke="#0042a3"/><path d="M1556.5825470547743,709.5038853640292L1507.6993664517672,873.345165251945L1512.5389230802143,1168.4616180044977Z" fill="#002693" stroke="#002693"/><path d="M-167.13884617116986,872.1685768079601L-18.125589276701703,1092.7128431960039L21.587946139012516,953.0807421627293Z" fill="#7d92cf" stroke="#7d92cf"/><path d="M21.587946139012516,953.0807421627293L-18.125589276701703,1092.7128431960039L181.75422696604366,1173.6657462604971Z" fill="#747cc3" stroke="#747cc3"/><path d="M21.587946139012516,953.0807421627293L181.75422696604366,1173.6657462604971L244.86919871984293,836.1571394685839Z" fill="#6d84c7" stroke="#6d84c7"/><path d="M244.86919871984293,836.1571394685839L181.75422696604366,1173.6657462604971L328.5989011684884,1135.3211040375334Z" fill="#6475be" stroke="#6475be"/><path d="M244.86919871984293,836.1571394685839L328.5989011684884,1135.3211040375334L492.30360450657145,910.6120656547073Z" fill="#5b7cc2" stroke="#5b7cc2"/><path d="M492.30360450657145,910.6120656547073L328.5989011684884,1135.3211040375334L465.74792581278956,1137.5583948320461Z" fill="#526ab8" stroke="#526ab8"/><path d="M492.30360450657145,910.6120656547073L465.74792581278956,1137.5583948320461L637.44476659403,1083.862431624818Z" fill="#4767b7" stroke="#4767b7"/><path d="M492.30360450657145,910.6120656547073L637.44476659403,1083.862431624818L689.9412126735616,968.4181745783242Z" fill="#3e6cb9" stroke="#3e6cb9"/><path d="M689.9412126735616,968.4181745783242L637.44476659403,1083.862431624818L929.6641787273517,1142.418930502926Z" fill="#2755ac" stroke="#2755ac"/><path d="M689.9412126735616,968.4181745783242L929.6641787273517,1142.418930502926L826.4083852653365,865.2778926952423Z" fill="#1c5aaf" stroke="#1c5aaf"/><path d="M826.4083852653365,865.2778926952423L929.6641787273517,1142.418930502926L1038.2015446730413,927.1467684901479Z" fill="#0852ab" stroke="#0852ab"/><path d="M1038.2015446730413,927.1467684901479L929.6641787273517,1142.418930502926L1102.1699757685992,1082.328120430783Z" fill="#003fa1" stroke="#003fa1"/><path d="M1038.2015446730413,927.1467684901479L1102.1699757685992,1082.328120430783L1269.326667118826,884.3303194757646Z" fill="#0042a2" stroke="#0042a2"/><path d="M1269.326667118826,884.3303194757646L1102.1699757685992,1082.328120430783L1253.625013719474,1174.898044277162Z" fill="#002f98" stroke="#002f98"/><path d="M1269.326667118826,884.3303194757646L1253.625013719474,1174.898044277162L1512.5389230802143,1168.4616180044977Z" fill="#001e8f" stroke="#001e8f"/><path d="M1269.326667118826,884.3303194757646L1512.5389230802143,1168.4616180044977L1507.6993664517672,873.345165251945Z" fill="#002593" stroke="#002593"/><path d="M181.75422696604366,1173.6657462604971L1253.625013719474,1174.898044277162L929.6641787273517,1142.418930502926Z" fill="#2148a3" stroke="#2148a3"/><path d="M181.75422696604366,1173.6657462604971L929.6641787273517,1142.418930502926L465.74792581278956,1137.5583948320461Z" fill="#475aae" stroke="#475aae"/><path d="M181.75422696604366,1173.6657462604971L465.74792581278956,1137.5583948320461L328.5989011684884,1135.3211040375334Z" fill="#5e64b4" stroke="#5e64b4"/><path d="M465.74792581278956,1137.5583948320461L929.6641787273517,1142.418930502926L637.44476659403,1083.862431624818Z" fill="#3453ab" stroke="#3453ab"/><path d="M929.6641787273517,1142.418930502926L1253.625013719474,1174.898044277162L1102.1699757685992,1082.328120430783Z" fill="#002c96" stroke="#002c96"/></g></svg>